<svg width="24" height="24" viewBox="0 0 24 24" fill="none" xmlns="http://www.w3.org/2000/svg">
<path fill-rule="evenodd" clip-rule="evenodd" d="M4.61108 10.6168C4.61108 7.29262 7.38571 4.53345 10.8889 4.53345C14.392 4.53345 17.1666 7.29262 17.1666 10.6168C17.1666 13.9409 14.392 16.7001 10.8889 16.7001C7.38571 16.7001 4.61108 13.9409 4.61108 10.6168ZM10.8889 1.53345C5.80091 1.53345 1.61108 5.56462 1.61108 10.6168C1.61108 15.6689 5.80091 19.7001 10.8889 19.7001C12.7907 19.7001 14.5671 19.1369 16.0461 18.1676L19.8282 21.9497C20.414 22.5355 21.3637 22.5355 21.9495 21.9497C22.5353 21.3639 22.5353 20.4141 21.9495 19.8284L18.2583 16.1371C19.4535 14.6117 20.1666 12.7011 20.1666 10.6168C20.1666 5.56462 15.9768 1.53345 10.8889 1.53345Z" fill="#212428"/>
</svg>
