<svg width="22" height="20" viewBox="0 0 22 20" fill="none" xmlns="http://www.w3.org/2000/svg">
<path d="M18.612 3.41452C18.1722 2.96607 17.65 2.61034 17.0752 2.36763C16.5005 2.12492 15.8844 2 15.2623 2C14.6401 2 14.0241 2.12492 13.4493 2.36763C12.8746 2.61034 12.3524 2.96607 11.9126 3.41452L10.9998 4.34476L10.087 3.41452C9.19858 2.50912 7.99364 2.00047 6.73725 2.00047C5.48085 2.00047 4.27591 2.50912 3.38751 3.41452C2.4991 4.31992 2 5.5479 2 6.82833C2 8.10875 2.4991 9.33674 3.38751 10.2421L10.9998 18L18.612 10.2421C19.0521 9.79391 19.4011 9.26171 19.6393 8.67596C19.8774 8.0902 20 7.46237 20 6.82833C20 6.19428 19.8774 5.56645 19.6393 4.9807C19.4011 4.39494 19.0521 3.86275 18.612 3.41452Z" stroke="#C0C0C0" stroke-width="3" stroke-linecap="round" stroke-linejoin="round"/>
</svg>
